<?xml version="1.0" encoding="utf-8"?>
<!-- Generator: Adobe Illustrator 22.0.1, SVG Export Plug-In . SVG Version: 6.00 Build 0)  -->
<!DOCTYPE svg PUBLIC "-//W3C//DTD SVG 1.1//EN" "http://www.w3.org/Graphics/SVG/1.1/DTD/svg11.dtd">
<svg version="1.1" id="Layer_1" xmlns="http://www.w3.org/2000/svg" xmlns:xlink="http://www.w3.org/1999/xlink" x="0px" y="0px"
	 viewBox="0 0 585 612" style="enable-background:new 0 0 585 612;" xml:space="preserve">
<style type="text/css">
	.st0{fill:#FFFFFF;}
</style>
<path class="st0" d="M291,24.2C135.9,24.7,13,146,12.9,299.8C12.8,454.6,134.8,577.3,289,577.4c153.6,0,275.7-122.2,277.4-274.3
	C567.9,149.5,441.4,23.7,291,24.2z M289.5,548.5C152.8,548.5,42,437.7,42,301S152.8,53.5,289.5,53.5S537,164.3,537,301
	S426.2,548.5,289.5,548.5z"/>
<path class="st0" d="M428.9,238.7L285.6,382L149.9,239.4l0,0c-6.5,6.5-12.6,12.5-18.1,17.9c51.8,52.7,104.4,106.4,157.5,160.4
	c53-53.8,105.9-107.4,158.1-160.4C441.5,251.3,435.4,245.2,428.9,238.7z"/>
<polygon class="st0" points="149.9,239.4 153.3,235.7 295.7,384.7 287.3,402 149.9,257 "/>
</svg>
