<?xml version="1.0" encoding="utf-8"?>
<!-- Generator: Adobe Illustrator 22.0.1, SVG Export Plug-In . SVG Version: 6.00 Build 0)  -->
<!DOCTYPE svg PUBLIC "-//W3C//DTD SVG 1.1//EN" "http://www.w3.org/Graphics/SVG/1.1/DTD/svg11.dtd">
<svg version="1.1" id="Layer_1" xmlns="http://www.w3.org/2000/svg" xmlns:xlink="http://www.w3.org/1999/xlink" x="0px" y="0px"
	 viewBox="301.3 87.3 141.3 140.3" style="enable-background:new 301.3 87.3 141.3 140.3;" xml:space="preserve">
<style type="text/css">
	.st0{fill:none;stroke:#FFFFFF;stroke-width:4;stroke-miterlimit:10;}
	.st1{fill:#FFFFFF;}
</style>
<circle class="st0" cx="372.1" cy="156.9" r="63.8"/>
<g id="RLFFoq.tif">
	<g>
		<path class="st1" d="M404,182.1c-4.4,0-8.3,0-12.8,0c0-5.3,0-10.5,0-15.8c0-3.1,0.1-6.2-0.3-9.2c-0.5-4.5-2.8-6.7-6.5-6.6
			c-3.6,0.1-6.4,3-6.5,7.2c-0.2,6.4-0.1,12.8-0.1,19.2c0,1.6,0,3.2,0,5.1c-4.3,0-8.4,0-12.8,0c0-13.4,0-26.7,0-40.3
			c3.4,0,6.9,0,10.5,0c0.3,1.4,0.6,2.8,0.8,3.6c3.4-1.6,6.6-3.8,10-4.5c9.4-1.8,16.3,3.7,17.4,13.3c0.2,1.9,0.2,3.9,0.2,5.9
			C404,167.3,404,174.5,404,182.1z"/>
		<path class="st1" d="M344.9,141.6c4,0,7.9,0,12.1,0c0,13.4,0,26.7,0,40.3c-3.9,0-7.8,0-12.1,0
			C344.9,168.7,344.9,155.4,344.9,141.6z"/>
		<path class="st1" d="M350.8,136.1c-4.2-0.1-6.7-2.5-6.6-6.3c0.1-3.7,3.2-6.2,7.3-6.1c4,0.1,6.3,2.3,6.3,6.2
			C357.8,133.8,355.2,136.2,350.8,136.1z"/>
	</g>
</g>
</svg>
