<?xml version="1.0" encoding="utf-8"?>
<!-- Generator: Adobe Illustrator 18.0.0, SVG Export Plug-In . SVG Version: 6.00 Build 0)  -->
<!DOCTYPE svg PUBLIC "-//W3C//DTD SVG 1.1//EN" "http://www.w3.org/Graphics/SVG/1.1/DTD/svg11.dtd">
<svg version="1.1" id="Layer_1" xmlns="http://www.w3.org/2000/svg" xmlns:xlink="http://www.w3.org/1999/xlink" x="0px" y="0px"
	 viewBox="234.6 285.6 531 506.4" enable-background="new 234.6 285.6 531 506.4" xml:space="preserve">
<path fill="#EBE8DC" d="M704.9,407.3c0,0-164.4-36.9-202.3,17.1c0,0-28.7-54.8-206.3-16.5c0,0-19.8,5.9-19.1,27v289.9
	c0,0,0.7,31,35,23.1c0,0,130.7-26.4,163.7,5.2c0,0,22.5,31,59.4,0c0,0,27-31,152.5-6.6c0,0,34.4,16.5,40.9-22.5V439
	C728.7,439,735.3,414.6,704.9,407.3z M491.6,734.5c-66.6-38.3-192.7-9.1-192.7-9.1V431.1c19-7.6,105.5-14.7,105.5-14.7
	c82.1-3.5,87.1,36.9,87.1,36.9L491.6,734.5L491.6,734.5z M704.5,726.1c0,0-126.1-29.3-192.7,9.1V454.1c0,0,5.1-40.4,87.1-36.9
	c0,0,86.5,6.9,105.5,14.7L704.5,726.1L704.5,726.1z"/>
<path fill="#EBE8DC" d="M325.9,472c0,0,95.8-23.8,142.6,3.3v13.9c0,0-50.8-23.1-142.6,0V472z"/>
<path fill="#EBE8DC" d="M325.9,532.8c0,0,87.1-23.1,142.6,2.7v15.8c0,0-62.7-24.5-142.6,0V532.8z"/>
<path fill="#EBE8DC" d="M325.9,592.5c0,0,74-19.8,142.6,0v14.6c0,0-48.2-16.5-142.6,0V592.5z"/>
<path fill="#EBE8DC" d="M325.9,650.9c0,0,89.1-17.8,142.6,0v17.1c0,0-47.5-20.5-142.6,0V650.9z"/>
<path fill="#EBE8DC" d="M679.2,472c0,0-95.8-23.8-142.6,3.3v13.9c0,0,50.8-23.1,142.6,0V472z"/>
<path fill="#EBE8DC" d="M679.2,532.7c0,0-87.1-23.1-142.6,2.7v15.8c0,0,62.7-24.5,142.6,0V532.7z"/>
<path fill="#EBE8DC" d="M679.2,592.4c0,0-74-19.8-142.6,0V607c0,0,48.2-16.5,142.6,0V592.4z"/>
<path fill="#EBE8DC" d="M679.2,650.8c0,0-89.1-17.8-142.6,0V668c0,0,47.5-20.5,142.6,0V650.8z"/>
</svg>
