<?xml version="1.0" encoding="utf-8"?>
<!-- Generator: Adobe Illustrator 18.0.0, SVG Export Plug-In . SVG Version: 6.00 Build 0)  -->
<!DOCTYPE svg PUBLIC "-//W3C//DTD SVG 1.1//EN" "http://www.w3.org/Graphics/SVG/1.1/DTD/svg11.dtd">
<svg version="1.1" id="Layer_1" xmlns="http://www.w3.org/2000/svg" xmlns:xlink="http://www.w3.org/1999/xlink" x="0px" y="0px"
	 viewBox="129.6 308.1 816 805.5" enable-background="new 129.6 308.1 816 805.5" xml:space="preserve">
<path fill="#EBE8DC" d="M753.7,531.4c0,0-167.6-37.6-206.2,17.4c0,0-29.3-55.9-210.3-16.8c0,0-20.2,6-19.5,27.5v295.5
	c0,0,0.7,31.6,35.7,23.5c0,0,133.2-26.9,166.9,5.3c0,0,22.9,31.6,60.6,0c0,0,27.5-31.6,155.5-6.7c0,0,35.1,16.8,41.7-22.9V563.7
	C778,563.7,784.7,538.8,753.7,531.4z M536.3,864.9c-67.9-39-196.4-9.3-196.4-9.3v-300c19.4-7.7,107.6-15,107.6-15
	c83.7-3.6,88.8,37.6,88.8,37.6L536.3,864.9L536.3,864.9z M753.3,856.4c0,0-128.6-29.9-196.4,9.3V579.1c0,0,5.2-41.2,88.8-37.6
	c0,0,88.2,7,107.6,15L753.3,856.4L753.3,856.4z"/>
<path fill="#EBE8DC" d="M367.3,597.3c0,0,97.7-24.3,145.4,3.4v14.2c0,0-51.8-23.5-145.4,0V597.3z"/>
<path fill="#EBE8DC" d="M367.3,659.3c0,0,88.8-23.5,145.4,2.8v16.1c0,0-63.9-25-145.4,0V659.3z"/>
<path fill="#EBE8DC" d="M367.3,720.2c0,0,75.4-20.2,145.4,0v14.9c0,0-49.1-16.8-145.4,0V720.2z"/>
<path fill="#EBE8DC" d="M367.3,779.7c0,0,90.8-18.1,145.4,0v17.4c0,0-48.4-20.9-145.4,0V779.7z"/>
<path fill="#EBE8DC" d="M747,604.6c0,0-110.4-27.4-164.4,3.8v16c0,0,58.5-26.6,164.4,0L747,604.6L747,604.6z"/>
<path fill="#EBE8DC" d="M727.5,659.2c0,0-88.8-23.5-145.4,2.8v16.1c0,0,63.9-25,145.4,0L727.5,659.2L727.5,659.2z"/>
<path fill="#EBE8DC" d="M727.5,720.1c0,0-75.4-20.2-145.4,0V735c0,0,49.1-16.8,145.4,0L727.5,720.1L727.5,720.1z"/>
<path fill="#EBE8DC" d="M727.5,779.6c0,0-90.8-18.1-145.4,0v17.5c0,0,48.4-20.9,145.4,0L727.5,779.6L727.5,779.6z"/>
<circle fill="none" stroke="#EBE8DC" stroke-width="21" stroke-miterlimit="10" cx="543.3" cy="709.9" r="363"/>
</svg>
