<?xml version="1.0" encoding="utf-8"?>
<!-- Generator: Adobe Illustrator 18.1.1, SVG Export Plug-In . SVG Version: 6.00 Build 0)  -->
<!DOCTYPE svg PUBLIC "-//W3C//DTD SVG 1.1//EN" "http://www.w3.org/Graphics/SVG/1.1/DTD/svg11.dtd">
<svg version="1.1" id="Layer_1" xmlns="http://www.w3.org/2000/svg" xmlns:xlink="http://www.w3.org/1999/xlink" x="0px" y="0px"
	 viewBox="98.1 197.1 406.5 390" enable-background="new 98.1 197.1 406.5 390" xml:space="preserve">
<circle fill="#EE5A2A" cx="304.3" cy="393.8" r="186.3"/>
<path fill="#EBE8DC" d="M454.4,492.2c-1.8-1-3.5-2.2-5-3.3c-0.7-0.6-1.5-1.3-2.3-2.1c-5.4-5.6-9.5-14-11.1-17.6
	c-5.7-14.6-8-30.1-7.5-46.3c0.2-6.2,2.4-10.3,9.2-12.8c15.8-5.8,31-28.8,30.6-44.4c-0.2-7.2-3.3-9.9-10.5-8.9
	c-4.1,0.6-8.1,1.6-12.1,2.2c-6,0.9-8.1-2-6.8-7.7c1.7-7.5,3.2-15.1,5.2-22.5c3.9-14.3,8-28.6,11.9-42.9
	c-11.8-16.5-26.2-31.1-42.6-43c-7.7,1.7-15.1,4.9-22,9.6c-6.1,4.2-11.6,8.9-16.7,13.9c-4.7,5-29.9,35.3-50.1,127.2
	c0,0-6.9,28.9-17.1,57.6l0,0c-15.7,51.9-40.2,67.3-40.2,67.3s-1.4,0.6-1.7-1.1c0,0,6.9-26.1-15.3-57.8c-0.4-0.5-0.8-0.8-0.8-0.8
	c-19.1-17.2-39.4-16.3-54.1-11.9c-4,1.3-34.1,12.3-41.2,51.5c0,0-0.3,2.2-0.3,5.7c26.2,35.6,64.7,61.5,109.2,71.5
	c23.4-10.6,39.8-25.8,44.6-30.5c16.5-17.9,27.6-37.4,34.6-52.8l0,0c8.8-17.3,17.9-49.6,17.9-49.6v-0.1c1.1-3.6,2.1-7.2,3-10.9
	c4-16.2,4.7-16.4,22-15.2c0.5,0,1,0,1.6,0.1h-0.1c5,0.3,4.6,8.8,4.6,8.8l1.6,36.9c0.4,14.6,4.3,26.6,8.4,35.5
	c2.5,5.2,12,21.6,32.8,29.2c10.1-9.9,19-20.9,26.7-32.8C459.7,494.1,457.3,493.6,454.4,492.2z M230.2,506.9
	c0.2,21.6-10.9,29.9-10.9,29.9h-3.5c-10.2-1.4-16-9.4-18.4-13.7c-0.4-0.7-0.8-1.4-1.1-2.1c-0.1-0.3-0.2-0.5-0.2-0.5l0,0
	c-3.9-9.3-1.6-20.1-1.6-20.1c6-22.5,18.6-19.6,18.6-19.6c7.6,0.3,11.8,4.9,14.1,9.8l0,0c0,0,3.1,5.8,3.1,15.3v0.1
	C230.2,506.3,230.3,506.6,230.2,506.9L230.2,506.9z M411.3,320c-2.4,10-4.6,19.2-6.8,28.5c-0.9,4-1.1,8.3-2.8,11.9
	c-1.2,2.6-3.9,5.9-6.5,6.4c-13.5,2.6-15.1,0.4-10.9-12.4c3.3-9.8,6-19.9,9.3-29.7c0.9-2.8,2.5-5.7,4.6-7.6c1.9-1.7,4.7-3.4,7.1-3.7
	l0.1-0.1C405.4,313.4,413.4,311.2,411.3,320z"/>
<path fill="#EBE8DC" d="M186.4,708.3"/>
</svg>
