<?xml version="1.0" encoding="utf-8"?>
<!-- Generator: Adobe Illustrator 18.1.1, SVG Export Plug-In . SVG Version: 6.00 Build 0)  -->
<!DOCTYPE svg PUBLIC "-//W3C//DTD SVG 1.1//EN" "http://www.w3.org/Graphics/SVG/1.1/DTD/svg11.dtd">
<svg version="1.1" id="Layer_1" xmlns="http://www.w3.org/2000/svg" xmlns:xlink="http://www.w3.org/1999/xlink" x="0px" y="0px"
	 viewBox="171.8 27.8 648.1 651.1" enable-background="new 171.8 27.8 648.1 651.1" xml:space="preserve">
<circle fill="#EE5A2A" cx="501.5" cy="353.8" r="304.1"/>
<path fill="#EBE8DC" d="M746.6,514.3c-2.9-1.7-5.6-3.6-8.1-5.4c-1.2-1-2.5-2.2-3.7-3.4c-8.8-9.1-15.5-22.8-18.1-28.7
	c-9.3-23.8-13-49.2-12.2-75.6c0.3-10.2,4-16.8,15-20.8c25.8-9.5,50.6-47,50-72.5c-0.3-11.8-5.4-16.2-17.1-14.5
	c-6.6,1-13.2,2.6-19.8,3.6c-9.8,1.4-13.3-3.2-11.1-12.6c2.8-12.2,5.3-24.6,8.6-36.7c6.3-23.4,13.1-46.6,19.4-70
	c-19.2-27-42.7-50.7-69.6-70.1c-12.6,2.8-24.7,7.9-35.9,15.7c-9.9,6.9-18.9,14.5-27.2,22.7c-7.7,8.2-48.7,57.6-81.8,207.5
	c0,0-11.3,47.1-27.9,94l0,0c-25.6,84.7-65.6,109.8-65.6,109.8s-2.2,0.9-2.7-1.7c0,0,11.2-42.7-24.9-94.4c-0.7-0.8-1.2-1.3-1.2-1.3
	c-31.1-28-64.4-26.6-88.3-19.4c-6.6,2.1-55.7,20.1-67.3,84.1c0,0-0.4,3.6-0.5,9.3c42.7,58.1,105.6,100.3,178.3,116.6
	c38.2-17.3,65-42.1,72.8-49.8c27-29.1,45.1-61,56.5-86.2v0c14.3-28.2,29.3-81,29.3-81s0-0.1,0-0.1c1.8-5.8,3.4-11.7,4.9-17.7
	c6.5-26.5,7.6-26.8,35.9-24.8c0.9,0.1,1.7,0.1,2.6,0.1l-0.1,0c8.1,0.5,7.5,14.4,7.5,14.4l2.7,60.3c0.7,23.8,7,43.4,13.8,57.9
	c4.2,8.4,19.7,35.2,53.5,47.7c16.5-16.1,31.1-34,43.5-53.5C755.1,517.5,751.2,516.7,746.6,514.3z M380.7,538.3
	c0.3,35.3-17.8,48.9-17.8,48.9h-5.8c-16.6-2.2-26.1-15.4-30-22.4c-0.7-1.1-1.3-2.3-1.8-3.5c-0.2-0.5-0.4-0.9-0.4-0.9l0,0
	c-6.4-15.2-2.6-32.7-2.6-32.7c9.9-36.8,30.4-31.9,30.4-31.9c12.4,0.5,19.2,7.9,23,16l0,0c0,0,5.1,9.5,5.1,25c0,0,0,0.1,0,0.1
	C380.7,537.4,380.7,537.8,380.7,538.3L380.7,538.3z M676.1,233.3c-3.9,16.3-7.6,31.4-11.1,46.5c-1.5,6.5-1.9,13.5-4.5,19.5
	c-1.9,4.3-6.4,9.7-10.5,10.4c-22,4.2-24.6,0.7-17.7-20.2c5.3-16.1,9.8-32.4,15.1-48.5c1.5-4.5,4.1-9.3,7.5-12.4
	c3.1-2.8,7.7-5.6,11.6-6l0.1-0.2C666.5,222.6,679.6,219,676.1,233.3z"/>
</svg>
